<?xml version="1.0" encoding="UTF-8" standalone="no"?>
<!-- Created with Inkscape (http://www.inkscape.org/) -->
<svg xmlns:inkscape="http://www.inkscape.org/namespaces/inkscape" xmlns:rdf="http://www.w3.org/1999/02/22-rdf-syntax-ns#" xmlns="http://www.w3.org/2000/svg" xmlns:xlink="http://www.w3.org/1999/xlink" xmlns:ns1="http://sozi.baierouge.fr" xmlns:cc="http://creativecommons.org/ns#" xmlns:sodipodi="http://sodipodi.sourceforge.net/DTD/sodipodi-0.dtd" xmlns:dc="http://purl.org/dc/elements/1.1/" id="svg2" xml:space="preserve" viewBox="0 0 41.981 29.917" version="1.1" inkscape:version="0.91 r13725">
  <defs id="defs6">
    <clipPath id="clipPath18">
      <path id="path20" d="m0-0.066566h34v9h-34v-9z" inkscape:connector-curvature="0"/>
    </clipPath>
    <mask id="mask22">
      <g id="g24">
        <g id="g26" clip-path="url(#clipPath18)">
          <path id="path28" style="fill:#000000;fill-opacity:.14060" d="m0-0.066566h34v9h-34v-9z" inkscape:connector-curvature="0"/>
        </g>
      </g>
    </mask>
    <clipPath id="clipPath34">
      <path id="path36" d="m0-0.066566h34v9h-34v-9z" inkscape:connector-curvature="0"/>
    </clipPath>
    <clipPath id="clipPath38">
      <path id="path40" d="m0 0h34v9h-34v-9z" inkscape:connector-curvature="0"/>
    </clipPath>
  </defs>
  <g id="g10" transform="matrix(1.25 0 0 -1.25 0 29.917)">
    <g id="g12">
      <g id="g14">
        <g id="g30" mask="url(#mask22)">
          <g id="g42">
            <g id="g44" clip-path="url(#clipPath34)">
              <g id="g46" transform="translate(0 -.066566)">
                <g id="g50">
                  <g id="g52" clip-path="url(#clipPath38)">
                    <g id="g54">
                      <path id="path56" style="fill-rule:evenodd;fill:#000000" d="m33.457 5.68c0.105-0.051 0.148-0.172 0.121-0.36-0.027-0.215-0.121-0.386-0.281-0.519-0.106-0.082-0.387-0.215-0.84-0.403-0.746-0.238-1.242-0.41-1.48-0.519-0.454-0.184-0.774-0.332-0.961-0.438-0.266-0.187-0.559-0.375-0.879-0.562-0.293-0.16-0.696-0.305-1.199-0.438-0.481-0.136-0.961-0.336-1.442-0.601-0.48-0.293-0.851-0.492-1.121-0.602-0.453-0.183-0.813-0.343-1.078-0.476-0.481-0.242-0.934-0.375-1.359-0.403-0.641 0-1.293-0.027-1.961-0.078-0.508 0-1.465-0.054-2.879-0.16-0.828-0.055-1.309-0.066-1.442-0.043-0.453 0.082-0.773 0.137-0.961 0.16-0.691 0.082-1.664 0.121-2.918 0.121-0.695 0-1.175 0.039-1.441 0.121-0.188 0.028-0.707 0.227-1.559 0.598-0.668 0.297-1.054 0.469-1.16 0.524-0.082 0.078-0.265 0.21-0.558 0.398-0.27 0.188-0.524 0.32-0.762 0.398-0.266 0.11-0.535 0.243-0.801 0.403-0.187 0.105-0.492 0.332-0.918 0.679-0.375 0.266-0.828 0.532-1.363 0.801l-0.719 0.36c0.082-0.082 0.027-0.094-0.16-0.039-0.188 0.05-0.547 0.226-1.078 0.519-0.508 0.266-0.856 0.426-1.043 0.481-0.906 0.265-1.305 0.519-1.199 0.757 0.32 0.243 0.507 0.387 0.562 0.442 0.238 0.133 0.531 0.344 0.879 0.64 0.133 0.106 0.32 0.332 0.559 0.68 0.16 0.266 0.375 0.438 0.64 0.52 0.403 0.16 2.067 0.214 5 0.16 0.641-0.028 2.934-0.082 6.879-0.16 3.922-0.106 6.602-0.254 8.043-0.442 4.719-0.586 7.652-1.011 8.797-1.277 1.066-0.242 1.523-0.387 1.363-0.442-0.082-0.027-0.242-0.066-0.48-0.121l1.199-0.679z" inkscape:connector-curvature="0"/>
                    </g>
                  </g>
                </g>
              </g>
            </g>
          </g>
        </g>
      </g>
      <path id="path58" style="fill-rule:evenodd;fill:#9f9fa1" d="m31.219 5.414c-3.684-1.945-6.27-3.027-7.762-3.242-2-0.477-3.719-0.813-5.16-1-2.692-0.371-4.988-0.145-6.879 0.683-3.043 1.278-6.293 2.785-9.762 4.52l1.321 2.957c0.398 0.402 1.265 1.137 2.601 2.203 0.692 0.559 1.238 1.227 1.641 2 0.371 0.934 0.625 1.52 0.758 1.758 0.16 0.293 0.652 0.785 1.48 1.48 0.481 0.399 1.078 1.133 1.801 2.199 0.613 0.934 1.531 1.829 2.758 2.68l3.242 2.281c1.094-0.64 2.945-2.48 5.558-5.519 1.602-1.895 3.215-3.442 4.84-4.641 0.801-0.586 1.442-0.984 1.922-1.199l-0.359-0.961c-0.16-0.801-0.043-1.68 0.359-2.641l1.641-3.558z" inkscape:connector-curvature="0"/>
      <path id="path60" style="fill-rule:evenodd;fill:#858687" d="m16.938 20.172c0.132 0.109 0.238 0.336 0.32 0.683 0.133 0.453 0.277 0.825 0.437 1.117 0.293 0.586 0.36 1.122 0.2 1.602l2.441-2.082c0.59-0.426 1.707-1.797 3.359-4.117l0.16-0.481c-0.238-0.882-0.652-1.453-1.238-1.722-0.375-0.16-0.652-0.438-0.84-0.84-0.16-0.426-0.281-0.703-0.359-0.84-0.137-0.266-0.227-0.934-0.281-2-0.082-0.773 0.105-1.812 0.558-3.117 0.188-0.563 0.387-0.68 0.602-0.363l0.801 1.082c0.078 0.082 0.504 0.535 1.277 1.359 0.215 0.215 0.563 0.336 1.043 0.359 0.293 0.028 0.879 0.055 1.758 0.082 0.613 0.051 0.949 0.2 1 0.442 0.054 0.133 0.094 0.344 0.121 0.636 0.238 0.27 0.668 0.469 1.281 0.602l0.36-1.039c0.214-0.746 0.32-1.266 0.32-1.563 0-0.316 0.078-0.746 0.238-1.277 0.133-0.32 0.266-0.894 0.399-1.723 0.109-0.476 0.441-0.917 1-1.316-0.532-0.453-1.067-0.855-1.598-1.199-0.586-0.375-1.762-0.867-3.52-1.485-0.535-0.183-1-0.41-1.402-0.679-0.48-0.348-0.785-0.547-0.918-0.598-0.375-0.187-0.746-0.32-1.121-0.402-0.266-0.051-0.84-0.117-1.719-0.199l-4.078-0.321c-1.176-0.105-2.453-0.078-3.84 0.082-1.281 0.133-2.269 0.332-2.961 0.602-0.402 0.156-0.761 0.398-1.082 0.719-0.293 0.32-0.636 0.546-1.039 0.679-0.801 0.266-3.121 1.442-6.961 3.52 1.922-0.535 3.242-0.828 3.961-0.879 0.426-0.027 0.707-0.082 0.84-0.16 0.105-0.082 0.402-0.309 0.879-0.68 0.508-0.32 0.906-0.508 1.203-0.562 0.211-0.051 0.598-0.122 1.16-0.2 0.399-0.082 0.692-0.105 0.879-0.082 0.399 0.055 0.719 0.082 0.961 0.082 0.773 0 1.227-0.105 1.359-0.32 0.985-0.215 1.735-0.238 2.239-0.078 0.32 0.105 0.586 0.277 0.801 0.516 0.238 0.269 0.425 0.457 0.558 0.562 0.16 0.133 0.215 0.426 0.16 0.879-0.078 0.934-0.117 1.441-0.117 1.519 0 0.454-0.133 1.067-0.402 1.84l-0.442 1.043c-0.238 1.012-0.371 1.813-0.398 2.399-0.238 1.148-0.375 2.078-0.399 2.801-0.027 0.48 0.266 1.425 0.879 2.839 0.559 1.305 0.946 2.067 1.161 2.278z" inkscape:connector-curvature="0"/>
      <path id="path62" style="fill-rule:evenodd;fill:#858687" d="m8.059 12.453c0.503 0.668 0.918 0.879 1.238 0.641 0.238-0.133 0.359-0.387 0.359-0.762 0-0.426-0.547-0.891-1.64-1.399-0.399-0.187-0.547-0.039-0.438 0.442 0.106 0.398 0.266 0.758 0.481 1.078z" inkscape:connector-curvature="0"/>
      <path id="path64" style="fill-rule:evenodd;fill:#858687" d="m14.457 7.535c0.508 0 0.668-0.402 0.481-1.203-0.161-0.774-0.563-1.36-1.2-1.758-0.535-0.32-0.883-0.375-1.043-0.16-0.133 0.453-0.32 0.828-0.558 1.121-0.348 0.453-0.547 0.719-0.602 0.797-0.078 0.137-0.105 0.336-0.078 0.601 0.055 0.399 1.055 0.602 3 0.602z" inkscape:connector-curvature="0"/>
      <path id="path66" style="fill-rule:evenodd;fill:#858687" d="m9.535 6.652c0.27-0.051 0.387-0.281 0.363-0.68-0.027-0.375-0.253-0.546-0.679-0.519-0.457 0.027-0.617 0.254-0.481 0.68 0.133 0.402 0.399 0.574 0.797 0.519z" inkscape:connector-curvature="0"/>
      <path id="path68" style="fill-rule:evenodd;fill:#858687" d="m24.855 13.332c0.586-0.106 0.977-0.293 1.161-0.559 0.214-0.265 0.109-0.535-0.321-0.801-0.343-0.21-0.586-0.277-0.718-0.199-0.239 0.188-0.547 0.348-0.918 0.481-0.586 0.215-0.801 0.48-0.641 0.801 0.16 0.32 0.641 0.414 1.437 0.277z" inkscape:connector-curvature="0"/>
      <path id="path70" style="fill-rule:evenodd;fill:#858687" d="m24.496 14.773c0.402 0.028 0.586-0.105 0.563-0.398-0.055-0.297-0.282-0.442-0.684-0.442-0.398 0-0.586 0.133-0.559 0.399 0.028 0.269 0.254 0.414 0.68 0.441z" inkscape:connector-curvature="0"/>
      <path id="path72" style="fill-rule:evenodd;fill:#858687" d="m12.457 17.855c0.508-0.054 0.652-0.226 0.441-0.523-0.187-0.293-0.601-0.492-1.242-0.598-0.613-0.105-0.773 0.067-0.48 0.52 0.32 0.426 0.746 0.625 1.281 0.601z" inkscape:connector-curvature="0"/>
      <path id="path74" style="fill-rule:evenodd;fill:#858687" d="m3.617 7.773c0.238 0 0.305-0.199 0.199-0.601-0.105-0.399-0.375-0.598-0.8-0.598-0.426 0-0.504 0.199-0.239 0.598 0.239 0.402 0.52 0.601 0.84 0.601z" inkscape:connector-curvature="0"/>
      <path id="path76" style="fill-rule:evenodd;fill:#b8b8ba" d="m17.855 23.414c0.11-0.215 0.055-0.813-0.16-1.801-0.211-0.961-0.398-1.519-0.558-1.68-0.481-0.535-1.055-1.574-1.719-3.121-0.266-0.691-0.414-1.105-0.441-1.238-0.055-0.266-0.039-0.68 0.039-1.242 0.082-0.426 0.175-0.973 0.281-1.637 0.105-0.535 0.16-0.976 0.16-1.32 0-0.43 0.012-0.746 0.039-0.961-0.176 0.879-0.387 1.73-0.641 2.558-0.343 1.122-0.359 2.469-0.039 4.04 0.055 0.269 0.188 0.683 0.403 1.242 0.183 0.508 0.293 0.933 0.316 1.281 0 0.211 0.043 0.531 0.121 0.957 0.028 0.215 0 0.336-0.078 0.363-0.109 0.133-0.187 0.223-0.242 0.278-0.133 0.105-0.332 0.105-0.598 0-1.816-0.801-2.789-1.266-2.922-1.399l0.442 0.52c0.371 0.375 0.758 0.707 1.16 1 0.641 0.48 1.426 1.078 2.359 1.801 0.664 0.48 1.161 0.773 1.481 0.878 0.265-0.054 0.465-0.226 0.597-0.519z" inkscape:connector-curvature="0"/>
      <path id="path78" style="fill-rule:evenodd;fill:#b8b8ba" d="m10.258 14.734c-0.16 0-0.574 0.211-1.242 0.641-0.321 0.211-0.575 0.277-0.758 0.199l-0.199-0.199c0.132 0.32 0.316 0.558 0.558 0.719l1.121 0.878 0.797-0.199 1.043-0.64c0.078-0.133 0.199-0.481 0.36-1.039l0.839-1.36c-0.215 0.106-0.386 0.227-0.519 0.36-0.266 0.265-0.668 0.48-1.199 0.64-0.11 0.055-0.243 0.067-0.403 0.039l-0.398-0.039z" inkscape:connector-curvature="0"/>
      <path id="path80" style="fill-rule:evenodd;fill:#b8b8ba" d="m4.898 9.332c-0.214-0.051-0.402-0.078-0.562-0.078l-1.359 0.078 0.839 0.801 0.879 0.402c0.403 0.133 0.789 0.145 1.16 0.039 0.188-0.027 0.52-0.242 1-0.641 0.188-0.105 0.387-0.32 0.602-0.64 0.133-0.16 0.602-0.332 1.398-0.52h-1.558c-0.293 0-0.547 0.039-0.762 0.121-0.398 0.239-0.773 0.387-1.117 0.438-0.215 0.055-0.387 0.055-0.52 0z" inkscape:connector-curvature="0"/>
      <path id="path82" style="fill-rule:evenodd;fill:#9f9fa1" d="m18.617 15.695c0.028 0.371 0.332 0.77 0.918 1.199 0.188 0.133 0.469 0.332 0.84 0.598 0.293 0.215 0.469 0.387 0.52 0.52l1.043-0.278c0.105 0 0.214-0.082 0.32-0.242-0.028-0.238-0.094-0.453-0.203-0.637-0.078-0.136-0.211-0.226-0.399-0.281-0.293-0.055-0.574-0.105-0.84-0.16-0.293-0.055-0.453-0.106-0.48-0.16-0.027-0.106-0.106-0.199-0.238-0.282-0.215-0.132-0.496-0.398-0.84-0.8-0.293-0.371-0.496-0.653-0.602-0.84-0.054 0.64-0.066 1.094-0.039 1.363z" inkscape:connector-curvature="0"/>
      <path id="path84" style="fill-rule:evenodd;fill:#9f9fa1" d="m28.137 8.094h-1.321c-0.16 0-0.265-0.067-0.32-0.2-0.16-0.402-0.293-0.695-0.398-0.882-0.348-0.586-0.735-1.118-1.16-1.598 0.082 0.453 0.171 0.84 0.281 1.16 0.078 0.184 0.183 0.359 0.32 0.52 0.133 0.183 0.211 0.332 0.238 0.437 0.055 0.293 0.2 0.563 0.442 0.801 0.613 0.613 1.051 0.922 1.32 0.922l1.117-0.16c0.055-0.055 0.067-0.122 0.039-0.2-0.105-0.136-0.156-0.214-0.156-0.242-0.082-0.16-0.027-0.558 0.156-1.199 0.028-0.215-0.05-0.254-0.238-0.121-0.105 0.508-0.215 0.762-0.32 0.762z" inkscape:connector-curvature="0"/>
      <path id="path86" style="fill-rule:evenodd;fill:#9f9fa1" d="m19.938 8.375 0.32-1.242 0.199-0.438c0.027-0.082-0.016-0.16-0.121-0.242-0.184-0.082-0.359-0.16-0.52-0.242-0.211-0.106-0.332-0.211-0.359-0.317-0.16-0.347-0.281-0.586-0.359-0.722-0.188-0.317-0.266-0.41-0.239-0.278 0.079 0.211 0.118 0.348 0.118 0.399-0.293 0.453-0.426 0.773-0.399 0.961 0.027 0.16 0.133 0.398 0.32 0.718 0.211 0.375 0.399 0.625 0.559 0.762l0.481 0.641z" inkscape:connector-curvature="0"/>
    </g>
  </g>
<metadata><rdf:RDF><cc:Work><dc:format>image/svg+xml</dc:format><dc:type rdf:resource="http://purl.org/dc/dcmitype/StillImage"/><cc:license rdf:resource="http://creativecommons.org/licenses/publicdomain/"/><dc:publisher><cc:Agent rdf:about="http://openclipart.org/"><dc:title>Openclipart</dc:title></cc:Agent></dc:publisher></cc:Work><cc:License rdf:about="http://creativecommons.org/licenses/publicdomain/"><cc:permits rdf:resource="http://creativecommons.org/ns#Reproduction"/><cc:permits rdf:resource="http://creativecommons.org/ns#Distribution"/><cc:permits rdf:resource="http://creativecommons.org/ns#DerivativeWorks"/></cc:License></rdf:RDF></metadata></svg>
